<?xml version="1.0" encoding="UTF-8"?><svg xmlns="http://www.w3.org/2000/svg" xmlns:xlink="http://www.w3.org/1999/xlink" viewBox="0 0 173 42"><defs><linearGradient id="c" x1="170.44" y1="-645.05" x2="131.15" y2="-628.11" gradientTransform="translate(-30.81 -633.14) rotate(8.36) scale(1 -1)" gradientUnits="userSpaceOnUse"><stop offset=".26" stop-color="#035ce6"/><stop offset=".32" stop-color="#1478c0"/><stop offset=".4" stop-color="#2ba08d"/><stop offset=".48" stop-color="#3dbf64"/><stop offset=".55" stop-color="#4bd547"/><stop offset=".61" stop-color="#53e336"/><stop offset=".66" stop-color="#56e830"/><stop offset=".68" stop-color="#5ce058"/><stop offset=".71" stop-color="#63d884"/><stop offset=".73" stop-color="#6ad1aa"/><stop offset=".76" stop-color="#6fcbc9"/><stop offset=".79" stop-color="#73c7e0"/><stop offset=".82" stop-color="#75c4f1"/><stop offset=".85" stop-color="#77c2fb"/><stop offset=".89" stop-color="#78c2ff"/></linearGradient></defs><g id="a"><path d="M41.4,30.31h2.08c1.72,0,2.54,1.17,2.54,2.88s-.87,2.84-2.59,2.84h-2.02v-5.72ZM43.4,35.4c1.34,0,1.88-.86,1.88-2.21s-.48-2.25-1.82-2.25h-1.34v4.46h1.28Z" fill="#212a5f"/><path d="M46.54,33.97c0-1.2.78-2.17,1.96-2.17,1.24,0,1.9.96,1.9,2.33h-3.2c.05.84.5,1.48,1.34,1.48.6,0,1-.29,1.14-.85h.63c-.19.89-.84,1.39-1.77,1.39-1.26,0-2-.98-2-2.17ZM47.22,33.63h2.49c-.04-.82-.46-1.33-1.21-1.33s-1.18.58-1.28,1.33Z" fill="#212a5f"/><path d="M50.53,31.89h.7l.86,2.62c.12.37.27.87.27.87h.02s.15-.51.27-.87l.87-2.62h.67l-1.49,4.13h-.72l-1.45-4.13Z" fill="#212a5f"/><path d="M54.33,33.97c0-1.2.78-2.17,1.96-2.17,1.24,0,1.9.96,1.9,2.33h-3.2c.05.84.5,1.48,1.34,1.48.6,0,1-.29,1.14-.85h.63c-.19.89-.84,1.39-1.77,1.39-1.26,0-2-.98-2-2.17ZM55.01,33.63h2.49c-.04-.82-.46-1.33-1.21-1.33s-1.18.58-1.28,1.33Z" fill="#212a5f"/><path d="M58.85,30.31h.65v5.72h-.65v-5.72Z" fill="#212a5f"/><path d="M60.17,33.97c0-1.2.77-2.17,2-2.17s1.99.97,1.99,2.17-.75,2.17-1.99,2.17-2-.98-2-2.17ZM63.5,33.97c0-.91-.45-1.64-1.33-1.64s-1.34.73-1.34,1.64.46,1.63,1.34,1.63,1.33-.72,1.33-1.63Z" fill="#212a5f"/><path d="M64.81,31.89h.65v.58h.02c.31-.42.73-.68,1.33-.68,1.05,0,1.78.8,1.78,2.17s-.68,2.17-1.8,2.17c-.56,0-.96-.17-1.3-.61h-.02v1.81h-.65v-5.46ZM67.92,33.98c0-.93-.39-1.63-1.18-1.63-.9,0-1.32.74-1.32,1.63s.36,1.62,1.31,1.62c.79,0,1.18-.69,1.18-1.62Z" fill="#212a5f"/><path d="M69,33.97c0-1.2.78-2.17,1.96-2.17,1.24,0,1.9.96,1.9,2.33h-3.2c.05.84.5,1.48,1.34,1.48.6,0,1-.29,1.14-.85h.63c-.19.89-.84,1.39-1.77,1.39-1.26,0-2-.98-2-2.17ZM69.68,33.63h2.49c-.04-.82-.46-1.33-1.21-1.33s-1.18.58-1.28,1.33Z" fill="#212a5f"/><path d="M74.14,32.58h.02c.25-.4.68-.74,1.23-.74.12,0,.18.02.26.05v.62h-.02c-.1-.03-.16-.04-.29-.04-.64,0-1.2.48-1.2,1.25v2.29h-.65v-4.13h.65v.69Z" fill="#212a5f"/><path d="M75.97,34.69h.66c.09.72.57.92,1.18.92.68,0,.96-.3.96-.68,0-.46-.32-.58-1.08-.74-.82-.17-1.54-.34-1.54-1.24,0-.69.53-1.14,1.49-1.14,1.02,0,1.53.49,1.62,1.29h-.66c-.06-.54-.36-.78-.98-.78s-.83.26-.83.59c0,.45.4.54,1.11.68.83.17,1.53.35,1.53,1.3,0,.83-.68,1.26-1.63,1.26-1.14,0-1.77-.54-1.83-1.46Z" fill="#212a5f"/><path d="M81.1,33.97c0-1.2.77-2.17,2-2.17s1.99.97,1.99,2.17-.75,2.17-1.99,2.17-2-.98-2-2.17ZM84.43,33.97c0-.91-.45-1.64-1.33-1.64s-1.34.73-1.34,1.64.46,1.63,1.34,1.63,1.33-.72,1.33-1.63Z" fill="#212a5f"/><path d="M85.4,31.89h.57v-.66c0-.71.41-.97,1.1-.97.14,0,.24,0,.33.02v.55c-.11,0-.14,0-.21,0-.42,0-.57.1-.57.44v.63h.77v.53h-.77v3.61h-.65v-3.61h-.57v-.53Z" fill="#212a5f"/><path d="M89.17,33.17c0-1.71,1.07-2.98,2.8-2.98s2.8,1.27,2.8,2.98-1.07,2.98-2.8,2.98-2.8-1.27-2.8-2.98ZM94.03,33.17c0-1.34-.72-2.36-2.06-2.36s-2.06,1.01-2.06,2.36.72,2.35,2.06,2.35,2.06-1.01,2.06-2.35Z" fill="#212a5f"/><path d="M95.52,31.89h.65v.58h.02c.31-.42.73-.68,1.33-.68,1.05,0,1.78.8,1.78,2.17s-.68,2.17-1.8,2.17c-.56,0-.96-.17-1.3-.61h-.02v1.81h-.65v-5.46ZM98.63,33.98c0-.93-.39-1.63-1.17-1.63-.9,0-1.32.74-1.32,1.63s.36,1.62,1.31,1.62c.79,0,1.18-.69,1.18-1.62Z" fill="#212a5f"/><path d="M99.71,33.97c0-1.2.78-2.17,1.96-2.17,1.24,0,1.9.96,1.9,2.33h-3.2c.05.84.5,1.48,1.34,1.48.6,0,1-.29,1.14-.85h.63c-.19.89-.84,1.39-1.77,1.39-1.26,0-2-.98-2-2.17ZM100.39,33.63h2.49c-.04-.82-.46-1.33-1.21-1.33s-1.18.58-1.28,1.33Z" fill="#212a5f"/><path d="M104.85,32.44h.02c.3-.39.71-.64,1.31-.64.86,0,1.39.47,1.39,1.33v2.9h-.65v-2.85c0-.54-.35-.84-.94-.84-.66,0-1.13.46-1.13,1.14v2.54h-.65v-4.13h.65v.54Z" fill="#212a5f"/><path d="M108.23,35.34l3.42-4.4v-.02h-3.22v-.61h4.11v.56l-3.47,4.49v.02h3.61v.65h-4.45v-.69Z" fill="#212a5f"/><path d="M113.4,30.31h.65v.8h-.65v-.8ZM113.4,31.89h.65v4.13h-.65v-4.13Z" fill="#212a5f"/><path d="M114.67,31.89h.6v-1.3h.65v1.3h.8v.53h-.8v2.69c0,.29.15.38.42.38.13,0,.27-.03.34-.06h.02v.56c-.15.03-.33.06-.52.06-.53,0-.91-.22-.91-.8v-2.83h-.6v-.53Z" fill="#212a5f"/><path d="M117.39,30.31h.65v.8h-.65v-.8ZM117.39,31.89h.65v4.13h-.65v-4.13Z" fill="#212a5f"/></g><g id="b"><path d="M41.4,7.07h4.36l5.19,8.79c.27.49,1.2,2.23,1.2,2.23h.05s-.05-2.1-.05-2.72V7.07h4.23v17.5h-4.36l-5.14-8.66c-.29-.46-1.25-2.35-1.25-2.35h-.05s.05,2.25.05,2.86v8.15h-4.23V7.07Z" fill="#212a5f"/><path d="M57.97,18.28c0-3.75,2.62-6.61,6.44-6.61,1.79,0,3.21.59,4.28,1.57,1.49,1.37,2.23,3.55,2.2,6.09h-9.01c.25,1.69,1.17,2.74,2.81,2.74,1.05,0,1.74-.47,2.08-1.25h3.89c-.27,1.13-1,2.2-2.1,2.96-1.05.73-2.33,1.15-3.92,1.15-4.14,0-6.68-2.86-6.68-6.66h.01ZM66.85,16.95c-.15-1.49-1.08-2.45-2.37-2.45-1.52,0-2.3.96-2.57,2.45h4.94Z" fill="#212a5f"/><path d="M72.97,21.26v-6.73h-1.66v-2.5h1.66v-3.96h3.89v3.96h2.28v2.5h-2.28v5.87c0,.98.54,1.22,1.39,1.22.34,0,.73-.02.88-.02v2.91c-.34.1-1.1.2-2.18.2-2.33,0-3.99-.76-3.99-3.45h.01Z" fill="#212a5f"/><path d="M80.83,7.07h13.02v3.65h-8.69v3.55h7.27v3.5h-7.27v6.8h-4.33s0-17.5,0-17.5Z" fill="#212a5f"/><path d="M93.65,18.32c0-3.77,2.69-6.63,6.71-6.63s6.68,2.86,6.68,6.63-2.64,6.63-6.68,6.63-6.71-2.86-6.71-6.63ZM103,18.32c0-2.28-.93-3.82-2.67-3.82s-2.64,1.54-2.64,3.82.91,3.79,2.64,3.79,2.67-1.52,2.67-3.79Z" fill="#212a5f"/><path d="M108.28,20.26v-8.22h3.96v7.39c0,1.37.61,2.13,1.88,2.13,1.37,0,2.2-1.03,2.2-2.52v-7h3.99v12.53h-3.82v-1.54h-.07c-.91,1.22-2.01,1.91-3.75,1.91-2.89,0-4.41-1.88-4.41-4.67h.02Z" fill="#212a5f"/><path d="M122.23,12.03h3.84v1.71h.07c.93-1.35,2.13-2.08,3.87-2.08,2.74,0,4.36,1.96,4.36,4.75v8.15h-3.99v-7.34c0-1.32-.66-2.23-1.96-2.23s-2.2,1.1-2.2,2.64v6.93h-3.99s0-12.53,0-12.53Z" fill="#212a5f"/><path d="M135.62,18.3c0-3.92,2.25-6.63,5.48-6.63,1.76,0,2.77.73,3.5,1.79h.07v-6.39h3.99v17.5h-3.82v-1.69h-.05c-.76,1.3-2.06,2.08-3.7,2.08-3.21,0-5.48-2.47-5.48-6.66h0ZM144.77,18.3c0-2.1-.86-3.62-2.59-3.62-1.59,0-2.52,1.47-2.52,3.57s.93,3.55,2.47,3.55c1.66,0,2.64-1.44,2.64-3.5Z" fill="#212a5f"/><path d="M150.57,12.03h3.82v1.96h.07c.88-1.49,1.91-2.15,3.43-2.15.37,0,.61.02.78.1v3.43h-.1c-2.45-.34-4.01.86-4.01,3.57v5.63h-3.99v-12.53h0Z" fill="#212a5f"/><path d="M160.61,25.59h1.37c1.17,0,1.64-.47,1.64-1.32,0-.54-.24-1.27-.76-2.59l-3.7-9.64h4.21l1.69,5.34c.39,1.22.78,2.89.78,2.89h.05s.34-1.66.73-2.89l1.64-5.34h3.99l-4.33,12.7c-1,2.94-2.2,3.97-4.72,3.97h-2.59v-3.11h0Z" fill="#212a5f"/><path d="M26.72,40c-2.5.77-5.19,1-7.95.6-5.11-.76-9.43-3.57-12.21-7.48-1.13-1.59-2-3.35-2.58-5.23.11,0,.21.01.33.01.45,0,.9-.06,1.31-.17.7,2.12,1.81,4.06,3.26,5.72,2.52,2.9,6.05,4.95,10.14,5.55,2.43.35,4.81.17,7.03-.48.16.53.39,1.02.69,1.47h-.02Z" fill="#67ce4d"/><path d="M31.67,41.63c-.23,0-.47-.02-.71-.05-2.63-.39-4.46-2.84-4.07-5.47.09-.6.29-1.17.59-1.69.35-.6.27-1.35-.19-1.87-.31-.35-.75-.54-1.2-.54-.21,0-.43.04-.63.13-1.28.55-2.64.83-4.03.83-.51,0-1.02-.04-1.53-.11-4.3-.63-7.79-3.92-8.68-8.17-.14-.68-.7-1.19-1.39-1.27-.06,0-.12-.01-.18-.01-.62,0-1.19.36-1.46.93-.71,1.52-2.23,2.5-3.89,2.5-.21,0-.42-.02-.63-.05-1.13-.17-2.13-.76-2.82-1.68-.68-.92-.97-2.05-.8-3.18.31-2.09,2.13-3.66,4.24-3.66.21,0,.42.02.63.05,1.13.17,2.13.76,2.82,1.68.18.24.33.5.46.77.27.57.84.93,1.46.93.06,0,.12,0,.18-.01.69-.08,1.25-.59,1.39-1.27,1.01-4.8,5.29-8.28,10.18-8.28.51,0,1.02.04,1.53.11s1.01.19,1.5.33c.15.05.31.07.46.07.53,0,1.03-.26,1.34-.72.39-.59.35-1.36-.09-1.91-.06-.07-.12-.15-.18-.23-.94-1.26-1.33-2.82-1.1-4.38.42-2.87,2.93-5.04,5.83-5.04.29,0,.58.02.86.06,1.56.23,2.93,1.05,3.87,2.31.94,1.26,1.33,2.82,1.1,4.38-.42,2.87-2.93,5.04-5.83,5.04-.29,0-.58-.02-.86-.06-.08-.01-.16-.02-.24-.02-.62,0-1.2.35-1.47.91-.3.64-.18,1.39.34,1.87.48.44.92.93,1.32,1.46,1.66,2.23,2.35,4.98,1.95,7.73-.29,1.99-1.16,3.86-2.52,5.38-.46.52-.54,1.27-.19,1.87.29.51.83.81,1.39.81.11,0,.21-.01.32-.03.31-.06.62-.09.93-.09.23,0,.47.02.71.05,2.63.39,4.46,2.84,4.07,5.47-.35,2.35-2.39,4.12-4.77,4.12h0Z" fill="url(#c)"/><circle cx="21.42" cy="22.53" r="9.13" fill="#212a5f"/><path d="M17.3,17.72h2.4l2.86,4.84c.15.27.66,1.23.66,1.23h.03s-.03-1.16-.03-1.5v-4.57h2.33v9.64h-2.4l-2.83-4.77c-.16-.26-.69-1.29-.69-1.29h-.03s.03,1.24.03,1.58v4.49h-2.33v-9.64h0Z" fill="#fff"/></g></svg>